<svg width="131" height="39" viewBox="0 0 131 39" fill="none" xmlns="http://www.w3.org/2000/svg">
<path d="M0 10C0 4.47715 4.47715 0 10 0H130.448L117.095 31.6631C115.219 36.1095 110.863 39 106.038 39H0V10Z" fill="#E21E26"/>
<path d="M42.4922 25H39.9766L38.9766 22.3984H34.3984L33.4531 25H31L35.4609 13.5469H37.9062L42.4922 25ZM38.2344 20.4688L36.6562 16.2188L35.1094 20.4688H38.2344ZM44.4056 13.5469H46.7181V18.4219C47.2338 18.3698 47.5827 18.237 47.765 18.0234C47.9473 17.8099 48.2285 17.2161 48.6088 16.2422C49.0879 15.0026 49.5697 14.2318 50.0541 13.9297C50.5332 13.6276 51.3067 13.4766 52.3744 13.4766C52.4265 13.4766 52.5384 13.474 52.7103 13.4688V15.1797L52.3822 15.1719C51.9082 15.1719 51.5619 15.2318 51.3431 15.3516C51.1244 15.4661 50.9473 15.6432 50.8119 15.8828C50.6765 16.1224 50.4759 16.6146 50.2103 17.3594C50.0697 17.7552 49.916 18.0859 49.7494 18.3516C49.5879 18.6172 49.2989 18.8672 48.8822 19.1016C49.3978 19.2474 49.8223 19.5417 50.1556 19.9844C50.4942 20.4271 50.864 21.0521 51.265 21.8594L52.8275 25H50.1088L48.7416 22.0391C48.7207 21.9974 48.6765 21.9167 48.6088 21.7969C48.5827 21.7552 48.4864 21.5755 48.3197 21.2578C48.0228 20.6953 47.778 20.3438 47.5853 20.2031C47.3978 20.0625 47.1088 19.9896 46.7181 19.9844V25H44.4056V13.5469ZM54.8113 13.5469H57.1238V23.0781H61.6081V13.5469H63.9206V23.0781H64.8738V27.5H62.9519V25H54.8113V13.5469ZM67.1309 13.5469H69.295V21.1719L73.9356 13.5469H76.2403V25H74.0762V17.5234L69.4434 25H67.1309V13.5469ZM86.0913 25V20.2188H85.6225C84.8933 20.2188 84.3777 20.3281 84.0756 20.5469C83.7788 20.7656 83.2683 21.4193 82.5444 22.5078L80.8725 25H78.1069L79.5053 22.7656C80.0574 21.8802 80.4975 21.2604 80.8256 20.9062C81.1538 20.5469 81.5652 20.2266 82.06 19.9453C80.9923 19.7786 80.2215 19.4089 79.7475 18.8359C79.2735 18.2578 79.0366 17.5677 79.0366 16.7656C79.0366 16.0677 79.211 15.4505 79.56 14.9141C79.9142 14.3724 80.3777 14.0104 80.9506 13.8281C81.5288 13.6406 82.3907 13.5469 83.5366 13.5469H88.4038V25H86.0913ZM86.0913 15.4844H84.2866C83.3699 15.4844 82.7657 15.5052 82.4741 15.5469C82.1876 15.5885 81.9402 15.7292 81.7319 15.9688C81.5235 16.2083 81.4194 16.5208 81.4194 16.9062C81.4194 17.3073 81.5183 17.6276 81.7163 17.8672C81.9194 18.1016 82.1746 18.2474 82.4819 18.3047C82.7944 18.362 83.4272 18.3906 84.3803 18.3906H86.0913V15.4844Z" fill="white"/>
</svg>
