<svg width="31" height="31" viewBox="0 0 31 31" fill="none" xmlns="http://www.w3.org/2000/svg">
<path fill-rule="evenodd" clip-rule="evenodd" d="M15.4364 30.8122C15.4264 30.8122 15.4163 30.8123 15.4063 30.8123C6.91156 30.8123 0 23.9007 0 15.406C0 6.91132 6.91156 -0.000244141 15.4063 -0.000244141C15.4163 -0.000244141 15.4264 -0.000234703 15.4364 -0.000215832C15.4465 -0.000234711 15.4566 -0.000244141 15.4666 -0.000244141C23.9613 -0.000244141 30.8729 6.91132 30.8729 15.406C30.8729 23.9007 23.9613 30.8123 15.4666 30.8123C15.4566 30.8123 15.4465 30.8122 15.4364 30.8122ZM26.234 5.99654C26.2112 6.0069 26.1875 6.01581 26.1628 6.02307C24.874 6.40211 23.5683 6.71189 22.2507 6.95165C23.5474 9.36897 24.2886 12.0741 24.372 14.8748H28.0999H29.7402C29.6193 11.6047 28.385 8.47213 26.234 5.99654ZM29.7403 15.9373H28.0999H24.372C24.2885 18.7417 23.5454 21.4502 22.2455 23.87C23.5649 24.1087 24.873 24.4179 26.1628 24.7975C26.183 24.8034 26.2025 24.8104 26.2214 24.8184C28.3095 22.4222 29.6162 19.3281 29.7403 15.9373ZM25.388 25.6976C24.1639 25.3532 22.9236 25.0736 21.6732 24.8588C20.5528 26.6609 19.1094 28.2752 17.3902 29.613C20.477 29.1841 23.2527 27.7692 25.388 25.6976ZM17.3861 1.19567C19.9142 1.54032 22.278 2.54767 24.3089 4.15944C24.3586 4.19898 24.4131 4.22822 24.4699 4.24743C24.8117 4.52369 25.1405 4.8153 25.4554 5.12121C24.9435 5.2653 24.4285 5.39809 23.911 5.51955C23.8725 5.51995 23.8332 5.52441 23.7936 5.53326C23.0934 5.69741 22.3881 5.84054 21.6791 5.96266C20.557 4.1553 19.1101 2.53654 17.3861 1.19567ZM6.40295 4.24743C6.06122 4.52369 5.73239 4.8153 5.4175 5.12121C5.9294 5.2653 6.44437 5.39809 6.96192 5.51955C7.00042 5.51995 7.03969 5.52441 7.07925 5.53326C7.7795 5.69741 8.48475 5.84054 9.19377 5.96266C10.3159 4.1553 11.7627 2.53654 13.4868 1.19567C10.9587 1.54032 8.59492 2.54767 6.56394 4.15944C6.51429 4.19898 6.45977 4.22822 6.40295 4.24743ZM4.6515 24.8184C2.56335 22.4222 1.25664 19.3281 1.13258 15.9373H2.77294H6.50085C6.58438 18.7417 7.32744 21.4502 8.62742 23.87C7.30793 24.1087 5.9999 24.4179 4.71006 24.7975C4.6899 24.8034 4.67037 24.8104 4.6515 24.8184ZM4.63888 5.99655C2.48784 8.47214 1.25359 11.6047 1.13269 14.8748H2.77294H6.50085C6.58426 12.0741 7.32546 9.36897 8.62223 6.95165C7.30462 6.71189 5.99887 6.40211 4.71006 6.02307C4.68538 6.01581 4.66162 6.00691 4.63888 5.99655ZM14.875 14.8748H7.66971C7.75458 12.1306 8.49635 9.49652 9.82072 7.14995C11.4925 7.39907 13.1806 7.53625 14.875 7.55998V14.8748ZM23.2032 14.8748H15.9979V7.55998C17.6922 7.53625 19.3804 7.39907 21.0522 7.14995C22.3765 9.49653 23.1183 12.1306 23.2032 14.8748ZM15.9979 15.9373H23.203C23.116 18.6813 22.3574 21.3276 21.0358 23.6713C19.3669 23.4248 17.6831 23.2898 15.9979 23.2664V15.9373ZM7.66991 15.9373H14.875V23.2664C13.1898 23.2898 11.506 23.4248 9.83712 23.6713C8.51549 21.3276 7.75686 18.6813 7.66991 15.9373ZM13.4826 29.613C11.7634 28.2752 10.3201 26.6609 9.19968 24.8588C7.94925 25.0736 6.70895 25.3532 5.4849 25.6976C7.62016 27.7692 10.3959 29.1841 13.4826 29.613ZM14.875 1.49277C14.14 2.00445 13.4526 2.56735 12.8164 3.17467C12.7928 3.26159 12.7468 3.3436 12.6786 3.41144C11.8259 4.25741 11.0742 5.1763 10.4295 6.15375C11.902 6.35573 13.3874 6.46818 14.875 6.4913V1.49277ZM14.875 24.3302V29.244C13.0979 27.9869 11.6037 26.4285 10.4445 24.6669C11.9135 24.466 13.3936 24.3538 14.875 24.3302ZM20.4434 6.15375C18.9709 6.35573 17.4854 6.46818 15.9979 6.4913V1.49277C16.7329 2.00445 17.4203 2.56735 18.0565 3.17467C18.0801 3.26159 18.1261 3.3436 18.1943 3.41144C19.0469 4.25741 19.7987 5.1763 20.4434 6.15375ZM20.4284 24.6669C18.9594 24.466 17.4793 24.3538 15.9979 24.3302V29.244C17.775 27.9869 19.2691 26.4285 20.4284 24.6669Z" fill="#E21E26"/>
</svg>
