<svg width="17" height="19" viewBox="0 0 17 19" fill="none" xmlns="http://www.w3.org/2000/svg">
<path d="M8.83636 19C8.70354 19.0006 8.57189 18.9747 8.44895 18.9237C8.326 18.8728 8.21417 18.7978 8.11985 18.703L3.30205 13.8207C2.54136 13.0541 1.93923 12.1414 1.53088 11.1361C1.12254 10.1307 0.91619 9.05293 0.923915 7.96579C0.920639 6.91322 1.12462 5.87056 1.52391 4.89887C1.9232 3.92718 2.50978 3.04598 3.2493 2.30688C4.74288 0.82798 6.74818 0 8.83636 0C10.9245 0 12.9298 0.82798 14.4234 2.30688C15.163 3.04598 15.7495 3.92718 16.1488 4.89887C16.5481 5.87056 16.7521 6.91322 16.7488 7.96579C16.7565 9.05293 16.5502 10.1307 16.1418 11.1361C15.7335 12.1414 15.1314 13.0541 14.3707 13.8207L9.55288 18.6941C9.45928 18.7905 9.34777 18.8671 9.2248 18.9196C9.10182 18.9721 8.96981 18.9994 8.83636 19ZM8.83636 0.884354C6.97706 0.880014 5.1911 1.61901 3.86617 2.94092C3.20979 3.59765 2.68924 4.38044 2.335 5.24349C1.98075 6.10655 1.79992 7.03254 1.80308 7.96727C1.79604 8.93689 1.97994 9.8982 2.344 10.7949C2.70806 11.6916 3.24498 12.5058 3.92332 13.1896L8.73966 18.063C8.75209 18.0761 8.767 18.0865 8.78349 18.0936C8.79998 18.1007 8.81772 18.1043 8.83563 18.1043C8.85355 18.1043 8.87128 18.1007 8.88777 18.0936C8.90426 18.0865 8.91917 18.0761 8.93161 18.063L13.7494 13.1896C14.4278 12.5058 14.9647 11.6916 15.3287 10.7949C15.6928 9.8982 15.8767 8.93689 15.8697 7.96727C15.8728 7.03254 15.692 6.10655 15.3377 5.24349C14.9835 4.38044 14.4629 3.59765 13.8066 2.94092C12.4816 1.61901 10.6957 0.880014 8.83636 0.884354Z" fill="#E21E26"/>
<path d="M8.8344 12.0909C7.88779 12.0904 6.97061 11.7669 6.23905 11.1753C5.50749 10.5837 5.00679 9.76072 4.82221 8.84643C4.63764 7.93213 4.78061 6.98311 5.22677 6.16096C5.67294 5.33882 6.39471 4.6944 7.26917 4.33745C8.14362 3.9805 9.11669 3.9331 10.0226 4.20331C10.9286 4.47353 11.7114 5.04465 12.2378 5.81942C12.7642 6.59419 13.0016 7.52469 12.9096 8.45245C12.8175 9.38022 12.4017 10.2479 11.733 10.9077C11.3528 11.2831 10.901 11.5809 10.4035 11.7839C9.90611 11.987 9.37286 12.0913 8.8344 12.0909ZM8.8344 4.91916C8.09583 4.92032 7.38051 5.17357 6.81027 5.63579C6.24003 6.098 5.85014 6.7406 5.707 7.45412C5.56386 8.16765 5.67633 8.90798 6.02524 9.54901C6.37416 10.19 6.93795 10.6921 7.62058 10.9698C8.30321 11.2474 9.06248 11.2834 9.76905 11.0717C10.4756 10.86 11.0858 10.4136 11.4957 9.80852C11.9056 9.20347 12.0898 8.47722 12.0169 7.75345C11.9441 7.02968 11.6187 6.35316 11.0962 5.8391C10.7992 5.54677 10.4465 5.31503 10.0584 5.15716C9.67028 4.9993 9.25433 4.91842 8.8344 4.91916Z" fill="#E21E26"/>
</svg>
