<svg width="178" height="53" viewBox="0 0 178 53" fill="none" xmlns="http://www.w3.org/2000/svg">
<g clip-path="url(#clip0_3_738)">
<path d="M65.5013 8.44411H72.666V27.1226H80.3421V8.44411H87.5068V1.53467H65.5013V8.44411Z" fill="#E30611"/>
<path d="M103.882 8.44411H115.142V1.53467H103.886C93.5431 1.53467 88.0182 6.67632 88.0182 14.3305C88.0182 21.9809 93.5393 27.1263 103.886 27.1263H115.142V20.2131H103.882C99.0943 20.2131 95.9464 18.5017 95.9464 14.3267C95.9464 10.1517 99.0943 8.44411 103.882 8.44411Z" fill="#E30611"/>
<path d="M49.8895 1.53467L45.7975 16.8092L41.7056 1.53467H28.1434V27.1226H35.8196V6.31148L41.3972 27.1226H50.1979L55.7792 6.29643V27.1226H63.4553V1.53467H49.8895Z" fill="#E30611"/>
<path d="M10.2336 28.6608C3.15923 28.6608 0 22.9813 0 17.3545C0 13.5105 1.29754 9.08346 3.47515 5.50649C5.56626 2.05365 8.09741 0 10.2336 0C12.3624 0 14.8973 2.05365 17.0034 5.50649C19.1698 9.08346 20.4673 13.5105 20.4673 17.3545C20.4711 22.9813 17.3043 28.6608 10.2336 28.6608Z" fill="#E30611"/>
<path d="M130.66 14.3265V9.37667H126.527V14.3265H122.819V1.53442H126.527V6.22472H130.66V1.53442H134.369V14.3303H130.66V14.3265Z" fill="#E30611"/>
<path d="M142.711 14.6051C138.502 14.6051 136.129 13.0667 136.129 7.74453C136.129 2.75709 138.502 1.25635 142.711 1.25635C146.919 1.25635 149.292 2.75709 149.292 7.74453C149.292 13.0667 146.919 14.6051 142.711 14.6051ZM145.494 7.00356C145.494 4.85212 144.55 4.22399 142.714 4.22399C140.879 4.22399 139.935 4.85588 139.935 7.00356V8.82025C139.935 11.1748 140.879 11.6374 142.714 11.6374C144.55 11.6374 145.494 11.1748 145.494 8.82025V7.00356Z" fill="#E30611"/>
<path d="M158.77 8.85761L160.477 1.53442H166.04V14.3303H162.332V4.64875L160.383 12.8069H156.434L154.486 4.64875V14.3265H151.056V1.53442H157.081L158.77 8.85761Z" fill="#E30611"/>
<path d="M168.267 14.3265V1.53442H177.981V4.59233H171.975V6.26233H176.443V9.22997H171.975V11.2686H178V14.3265H168.267Z" fill="#E30611"/>
<path d="M0 44.4768C0 41.3436 1.34643 39.5608 4.42292 39.5608C7.47684 39.5608 8.84584 41.3436 8.84584 44.4768C8.84584 47.6287 7.4806 49.3927 4.42292 49.3927C1.34643 49.3927 0 47.6287 0 44.4768ZM7.17596 45.0485V43.89C7.17596 41.8025 6.19059 40.8359 4.42292 40.8359C2.6026 40.8359 1.68868 41.8025 1.68868 43.89V45.0485C1.68868 47.0984 2.59884 48.1214 4.42292 48.1214C6.18682 48.1214 7.17596 47.0984 7.17596 45.0485Z" fill="#E30611"/>
<path d="M15.7699 39.561V35.3484H17.3834V39.561C20.6103 39.561 22.487 41.1746 22.487 44.477C22.487 47.7794 20.6065 49.393 17.3834 49.393V53H15.7699V49.393C12.5242 49.393 10.6663 47.817 10.6663 44.477C10.6663 41.2122 12.5279 39.561 15.7699 39.561ZM15.7699 48.0464V40.9113C13.5509 40.9113 12.3549 41.9156 12.3549 43.9278V45.0111C12.3549 47.155 13.4005 48.0464 15.7699 48.0464ZM17.3834 48.0464C19.6813 48.0464 20.7984 47.155 20.7984 45.0111V43.9278C20.7984 41.8591 19.6212 40.9113 17.3834 40.9113V48.0464Z" fill="#E30611"/>
<path d="M31.2388 49.205V41.4982L26.8723 49.205H24.879V39.7529H26.4924V47.4786L30.8589 39.7529H32.8523V49.205H31.2388Z" fill="#E30611"/>
<path d="M37.4255 39.7529V47.9337H41.8108V39.7529H43.4242V47.9337H44.8497V51.8642H43.4242V49.2088H35.812V39.7567H37.4255V39.7529Z" fill="#E30611"/>
<path d="M53.0636 49.205V41.4982L48.6971 49.205H46.7038V39.7529H48.3173V47.4786L52.6838 39.7529H54.6771V49.205H53.0636Z" fill="#E30611"/>
<path d="M60.7135 43.7738L63.4102 43.5067V43.0892C63.4102 41.3628 62.6692 40.8287 61.2664 40.8287C60.014 40.8287 59.1979 41.3214 59.0662 42.5927H57.4528C57.622 40.6369 58.9346 39.5574 61.2664 39.5574C63.6584 39.5574 65.0236 40.6406 65.0236 43.108V49.2013H63.5042V47.9111C62.8009 48.8966 61.7027 49.3931 60.3525 49.3931C58.1711 49.3931 57.1255 48.2534 57.1255 46.6586C57.1255 44.8382 58.1673 44.022 60.7135 43.7738ZM63.4064 45.5415V44.5937L60.7888 44.8608C59.4047 45.0112 58.739 45.3723 58.739 46.4179V46.8354C58.739 47.7268 59.4235 48.2008 60.6383 48.2008C62.154 48.197 63.4064 47.362 63.4064 45.5415Z" fill="#E30611"/>
<path d="M66.7838 47.7605H67.2013C68.2431 47.7605 68.6417 47.1136 68.6417 44.1911V39.749H75.3024V49.2011H73.689V41.0203H70.0822V44.1911C70.0822 48.3097 69.3601 49.2011 67.1975 49.2011H66.78V47.7605H66.7838Z" fill="#E30611"/>
<path d="M78.2661 39.7529H79.8796V42.9989H82.1587C84.3589 42.9989 85.4421 44.1198 85.4421 45.9966C85.4421 48.0653 84.3589 49.205 82.1587 49.205H78.2661V39.7529ZM81.9857 44.2702H79.8796V47.9337H81.9857C83.2193 47.9337 83.7496 47.3281 83.7496 46.3201V45.7521C83.7534 44.8382 83.1629 44.2702 81.9857 44.2702Z" fill="#E30611"/>
<path d="M93.5055 49.205V44.9924H88.951V49.205H87.3375V39.7529H88.951V43.7023H93.5055V39.7529H95.119V49.205H93.5055Z" fill="#E30611"/>
<path d="M98.0792 39.7529H99.6926V42.9989H101.972C104.172 42.9989 105.255 44.1198 105.255 45.9966C105.255 48.0653 104.172 49.205 101.972 49.205H98.0829V39.7529H98.0792ZM101.803 44.2702H99.6964V47.9337H101.803C103.036 47.9337 103.566 47.3281 103.566 46.3201V45.7521C103.566 44.8382 102.98 44.2702 101.803 44.2702ZM106.639 49.205V39.7529H108.253V49.205H106.639Z" fill="#E30611"/>
<path d="M117.572 49.2049V41.498L113.206 49.2049H111.212V39.7528H112.826V47.4785L117.192 39.7528H119.186V49.2049H117.572ZM118.178 35.386C118.178 37.2478 117.249 38.2145 115.199 38.2145C113.149 38.2145 112.22 37.2478 112.22 35.386H113.604C113.604 36.6761 114.135 37.0936 115.199 37.0936C116.282 37.0936 116.794 36.6761 116.794 35.386H118.178Z" fill="#E30611"/>
<path d="M125.598 47.9337H126.719C127.422 46.6436 127.685 45.0864 127.685 42.713V39.7529H134.421V47.9337H135.847V51.8642H134.421V49.2088H127.039V51.8642H125.598V47.9337ZM129.13 41.0242V42.713C129.13 45.0676 128.938 46.6812 128.313 47.9337H132.812V41.0242H129.13Z" fill="#E30611"/>
<path d="M144.065 49.205V41.4982L139.698 49.205H137.705V39.7529H139.318V47.4786L143.685 39.7529H145.678V49.205H144.065Z" fill="#E30611"/>
<path d="M147.54 47.7605H147.957C148.999 47.7605 149.398 47.1136 149.398 44.1911V39.749H156.059V49.2011H154.445V41.0203H150.838V44.1911C150.838 48.3097 150.116 49.2011 147.954 49.2011H147.536V47.7605H147.54Z" fill="#E30611"/>
<path d="M165.19 46.3574H166.804C166.461 48.4449 165.021 49.3927 162.761 49.3927C159.801 49.3927 158.451 47.5911 158.451 44.4768C158.451 41.3624 159.816 39.5608 162.761 39.5608C165.359 39.5608 166.804 40.9825 166.804 43.8862V44.2849H160.143V45.0447C160.143 46.963 161.034 48.1177 162.761 48.1177C164.013 48.1214 164.98 47.6851 165.19 46.3574ZM160.177 43.0926H165.074C164.923 41.5355 164.239 40.8321 162.738 40.8321C161.147 40.8321 160.369 41.5355 160.177 43.0926Z" fill="#E30611"/>
<path d="M169.21 52.9999V39.7528H170.73V41.2535C171.377 40.1703 172.456 39.5647 173.957 39.5647C176.691 39.5647 178 41.404 178 44.4807C178 47.5574 176.71 49.3966 173.957 49.3966C172.513 49.3966 171.471 48.8663 170.824 47.8771V52.9999H169.21ZM176.311 45.0486V43.8902C176.311 41.9719 175.345 40.836 173.558 40.836C171.813 40.836 170.862 41.9192 170.824 43.7585V45.0486C170.824 47.0233 171.791 48.1216 173.558 48.1216C175.341 48.1216 176.311 47.0195 176.311 45.0486Z" fill="#E30611"/>
</g>
<defs>
<clipPath id="clip0_3_738">
<rect width="178" height="53" fill="white"/>
</clipPath>
</defs>
</svg>
